<svg width="750" height="550" viewBox="0 0 750 550" fill="none" xmlns="http://www.w3.org/2000/svg">
<path fill-rule="evenodd" clip-rule="evenodd" d="M84 0C81.7909 0 80 1.79086 80 4V146C80 148.209 81.7909 150 84 150H226C228.209 150 230 148.209 230 146V4C230 1.79086 228.209 0 226 0H84ZM0 164C0 161.791 1.79086 160 4 160H146C148.209 160 150 161.791 150 164V306C150 308.209 148.209 310 146 310H4C1.79086 310 0 308.209 0 306V164ZM3 320C1.34315 320 0 321.343 0 323V427C0 428.657 1.34314 430 3 430H107C108.657 430 110 428.657 110 427V323C110 321.343 108.657 320 107 320H3ZM0 442C0 440.895 0.895431 440 2 440H68C69.1046 440 70 440.895 70 442V508C70 509.105 69.1046 510 68 510H2C0.89543 510 0 509.105 0 508V442ZM0 522C0 520.895 0.895431 520 2 520H28C29.1046 520 30 520.895 30 522V548C30 549.105 29.1046 550 28 550H2C0.89543 550 0 549.105 0 548V522ZM600 404C600 401.791 601.791 400 604 400H746C748.209 400 750 401.791 750 404V546C750 548.209 748.209 550 746 550H604C601.791 550 600 548.209 600 546V404ZM165 160C162.239 160 160 162.239 160 165V345C160 347.761 162.239 350 165 350H345C347.761 350 350 347.761 350 345V165C350 162.239 347.761 160 345 160H165ZM440 123C440 121.343 441.343 120 443 120H547C548.657 120 550 121.343 550 123V227C550 228.657 548.657 230 547 230H443C441.343 230 440 228.657 440 227V123ZM283 360C281.343 360 280 361.343 280 363V467C280 468.657 281.343 470 283 470H387C388.657 470 390 468.657 390 467V363C390 361.343 388.657 360 387 360H283ZM440 323C440 321.343 441.343 320 443 320H547C548.657 320 550 321.343 550 323V427C550 428.657 548.657 430 547 430H443C441.343 430 440 428.657 440 427V323ZM322 80C320.895 80 320 80.8954 320 82V148C320 149.105 320.895 150 322 150H388C389.105 150 390 149.105 390 148V82C390 80.8954 389.105 80 388 80H322ZM160 442C160 440.895 160.895 440 162 440H228C229.105 440 230 440.895 230 442V508C230 509.105 229.105 510 228 510H162C160.895 510 160 509.105 160 508V442ZM362 240C360.895 240 360 240.895 360 242V308C360 309.105 360.895 310 362 310H428C429.105 310 430 309.105 430 308V242C430 240.895 429.105 240 428 240H362ZM280 482C280 480.895 280.895 480 282 480H348C349.105 480 350 480.895 350 482V548C350 549.105 349.105 550 348 550H282C280.895 550 280 549.105 280 548V482ZM402 440C400.895 440 400 440.895 400 442V508C400 509.105 400.895 510 402 510H468C469.105 510 470 509.105 470 508V442C470 440.895 469.105 440 468 440H402ZM560 282C560 280.895 560.895 280 562 280H628C629.105 280 630 280.895 630 282V348C630 349.105 629.105 350 628 350H562C560.895 350 560 349.105 560 348V282ZM562 200C560.895 200 560 200.895 560 202V268C560 269.105 560.895 270 562 270H628C629.105 270 630 269.105 630 268V202C630 200.895 629.105 200 628 200H562ZM680 322C680 320.895 680.895 320 682 320H748C749.105 320 750 320.895 750 322V388C750 389.105 749.105 390 748 390H682C680.895 390 680 389.105 680 388V322ZM522 480C520.895 480 520 480.895 520 482V548C520 549.105 520.895 550 522 550H588C589.105 550 590 549.105 590 548V482C590 480.895 589.105 480 588 480H522ZM480 242C480 240.895 480.895 240 482 240H548C549.105 240 550 240.895 550 242V308C550 309.105 549.105 310 548 310H482C480.895 310 480 309.105 480 308V242ZM122 360C120.895 360 120 360.895 120 362V428C120 429.105 120.895 430 122 430H188C189.105 430 190 429.105 190 428V362C190 360.895 189.105 360 188 360H122ZM240 81C240 79.8954 240.895 79 242 79H308C309.105 79 310 79.8954 310 81V147C310 148.105 309.105 149 308 149H242C240.895 149 240 148.105 240 147V81ZM2 79C0.895431 79 0 79.8954 0 81V147C0 148.105 0.89543 149 2 149H68C69.1046 149 70 148.105 70 147V81C70 79.8954 69.1046 79 68 79H2ZM40 522C40 520.895 40.8954 520 42 520H68C69.1046 520 70 520.895 70 522V548C70 549.105 69.1046 550 68 550H42C40.8954 550 40 549.105 40 548V522ZM82 520C80.8954 520 80 520.895 80 522V548C80 549.105 80.8954 550 82 550H108C109.105 550 110 549.105 110 548V522C110 520.895 109.105 520 108 520H82ZM120 522C120 520.895 120.895 520 122 520H148C149.105 520 150 520.895 150 522V548C150 549.105 149.105 550 148 550H122C120.895 550 120 549.105 120 548V522ZM642 280C640.895 280 640 280.895 640 282V308C640 309.105 640.895 310 642 310H668C669.105 310 670 309.105 670 308V282C670 280.895 669.105 280 668 280H642ZM160 522C160 520.895 160.895 520 162 520H188C189.105 520 190 520.895 190 522V548C190 549.105 189.105 550 188 550H162C160.895 550 160 549.105 160 548V522ZM682 280C680.895 280 680 280.895 680 282V308C680 309.105 680.895 310 682 310H708C709.105 310 710 309.105 710 308V282C710 280.895 709.105 280 708 280H682ZM200 522C200 520.895 200.895 520 202 520H228C229.105 520 230 520.895 230 522V548C230 549.105 229.105 550 228 550H202C200.895 550 200 549.105 200 548V522ZM602 360C600.895 360 600 360.895 600 362V388C600 389.105 600.895 390 602 390H628C629.105 390 630 389.105 630 388V362C630 360.895 629.105 360 628 360H602ZM240 522C240 520.895 240.895 520 242 520H268C269.105 520 270 520.895 270 522V548C270 549.105 269.105 550 268 550H242C240.895 550 240 549.105 240 548V522ZM562 160C560.895 160 560 160.895 560 162V188C560 189.105 560.895 190 562 190H588C589.105 190 590 189.105 590 188V162C590 160.895 589.105 160 588 160H562ZM560 362C560 360.895 560.895 360 562 360H588C589.105 360 590 360.895 590 362V388C590 389.105 589.105 390 588 390H562C560.895 390 560 389.105 560 388V362ZM242 480C240.895 480 240 480.895 240 482V508C240 509.105 240.895 510 242 510H268C269.105 510 270 509.105 270 508V482C270 480.895 269.105 480 268 480H242ZM240 442C240 440.895 240.895 440 242 440H268C269.105 440 270 440.895 270 442V468C270 469.105 269.105 470 268 470H242C240.895 470 240 469.105 240 468V442ZM82 480C80.8954 480 80 480.895 80 482V508C80 509.105 80.8954 510 82 510H108C109.105 510 110 509.105 110 508V482C110 480.895 109.105 480 108 480H82ZM120 482C120 480.895 120.895 480 122 480H148C149.105 480 150 480.895 150 482V508C150 509.105 149.105 510 148 510H122C120.895 510 120 509.105 120 508V482ZM402 400C400.895 400 400 400.895 400 402V428C400 429.105 400.895 430 402 430H428C429.105 430 430 429.105 430 428V402C430 400.895 429.105 400 428 400H402ZM440 522C440 520.895 440.895 520 442 520H468C469.105 520 470 520.895 470 522V548C470 549.105 469.105 550 468 550H442C440.895 550 440 549.105 440 548V522ZM482 520C480.895 520 480 520.895 480 522V548C480 549.105 480.895 550 482 550H508C509.105 550 510 549.105 510 548V522C510 520.895 509.105 520 508 520H482ZM360 522C360 520.895 360.895 520 362 520H388C389.105 520 390 520.895 390 522V548C390 549.105 389.105 550 388 550H362C360.895 550 360 549.105 360 548V522ZM362 480C360.895 480 360 480.895 360 482V508C360 509.105 360.895 510 362 510H388C389.105 510 390 509.105 390 508V482C390 480.895 389.105 480 388 480H362ZM400 362C400 360.895 400.895 360 402 360H428C429.105 360 430 360.895 430 362V388C430 389.105 429.105 390 428 390H402C400.895 390 400 389.105 400 388V362ZM362 320C360.895 320 360 320.895 360 322V348C360 349.105 360.895 350 362 350H388C389.105 350 390 349.105 390 348V322C390 320.895 389.105 320 388 320H362ZM400 322C400 320.895 400.895 320 402 320H428C429.105 320 430 320.895 430 322V348C430 349.105 429.105 350 428 350H402C400.895 350 400 349.105 400 348V322ZM362 200C360.895 200 360 200.895 360 202V228C360 229.105 360.895 230 362 230H388C389.105 230 390 229.105 390 228V202C390 200.895 389.105 200 388 200H362ZM120 442C120 440.895 120.895 440 122 440H148C149.105 440 150 440.895 150 442V468C150 469.105 149.105 470 148 470H122C120.895 470 120 469.105 120 468V442ZM82 440C80.8954 440 80 440.895 80 442V468C80 469.105 80.8954 470 82 470H108C109.105 470 110 469.105 110 468V442C110 440.895 109.105 440 108 440H82ZM120 322C120 320.895 120.895 320 122 320H148C149.105 320 150 320.895 150 322V348C150 349.105 149.105 350 148 350H122C120.895 350 120 349.105 120 348V322ZM242 400C240.895 400 240 400.895 240 402V428C240 429.105 240.895 430 242 430H268C269.105 430 270 429.105 270 428V402C270 400.895 269.105 400 268 400H242ZM240 362C240 360.895 240.895 360 242 360H268C269.105 360 270 360.895 270 362V388C270 389.105 269.105 390 268 390H242C240.895 390 240 389.105 240 388V362ZM202 360C200.895 360 200 360.895 200 362V388C200 389.105 200.895 390 202 390H228C229.105 390 230 389.105 230 388V362C230 360.895 229.105 360 228 360H202ZM560 402C560 400.895 560.895 400 562 400H588C589.105 400 590 400.895 590 402V428C590 429.105 589.105 430 588 430H562C560.895 430 560 429.105 560 428V402ZM562 440C560.895 440 560 440.895 560 442V468C560 469.105 560.895 470 562 470H588C589.105 470 590 469.105 590 468V442C590 440.895 589.105 440 588 440H562ZM200 402C200 400.895 200.895 400 202 400H228C229.105 400 230 400.895 230 402V428C230 429.105 229.105 430 228 430H202C200.895 430 200 429.105 200 428V402ZM482 480C480.895 480 480 480.895 480 482V508C480 509.105 480.895 510 482 510H508C509.105 510 510 509.105 510 508V482C510 480.895 509.105 480 508 480H482ZM480 442C480 440.895 480.895 440 482 440H508C509.105 440 510 440.895 510 442V468C510 469.105 509.105 470 508 470H482C480.895 470 480 469.105 480 468V442ZM442 280C440.895 280 440 280.895 440 282V308C440 309.105 440.895 310 442 310H468C469.105 310 470 309.105 470 308V282C470 280.895 469.105 280 468 280H442ZM640 362C640 360.895 640.895 360 642 360H668C669.105 360 670 360.895 670 362V388C670 389.105 669.105 390 668 390H642C640.895 390 640 389.105 640 388V362ZM442 240C440.895 240 440 240.895 440 242V268C440 269.105 440.895 270 442 270H468C469.105 270 470 269.105 470 268V242C470 240.895 469.105 240 468 240H442ZM640 322C640 320.895 640.895 320 642 320H668C669.105 320 670 320.895 670 322V348C670 349.105 669.105 350 668 350H642C640.895 350 640 349.105 640 348V322ZM402 200C400.895 200 400 200.895 400 202V228C400 229.105 400.895 230 402 230H428C429.105 230 430 229.105 430 228V202C430 200.895 429.105 200 428 200H402ZM360 162C360 160.895 360.895 160 362 160H388C389.105 160 390 160.895 390 162V188C390 189.105 389.105 190 388 190H362C360.895 190 360 189.105 360 188V162ZM402 160C400.895 160 400 160.895 400 162V188C400 189.105 400.895 190 402 190H428C429.105 190 430 189.105 430 188V162C430 160.895 429.105 160 428 160H402ZM400 121C400 119.895 400.895 119 402 119H428C429.105 119 430 119.895 430 121V147C430 148.105 429.105 149 428 149H402C400.895 149 400 148.105 400 147V121ZM482 80C480.895 80 480 80.8954 480 82V108C480 109.105 480.895 110 482 110H508C509.105 110 510 109.105 510 108V82C510 80.8954 509.105 80 508 80H482ZM520 82C520 80.8954 520.895 80 522 80H548C549.105 80 550 80.8954 550 82V108C550 109.105 549.105 110 548 110H522C520.895 110 520 109.105 520 108V82ZM522 40C520.895 40 520 40.8954 520 42V68C520 69.1046 520.895 70 522 70H548C549.105 70 550 69.1046 550 68V42C550 40.8954 549.105 40 548 40H522ZM480 42C480 40.8954 480.895 40 482 40H508C509.105 40 510 40.8954 510 42V68C510 69.1046 509.105 70 508 70H482C480.895 70 480 69.1046 480 68V42ZM442 84C440.895 84 440 84.8954 440 86V112C440 113.105 440.895 114 442 114H468C469.105 114 470 113.105 470 112V86C470 84.8954 469.105 84 468 84H442Z" fill="white"/>
</svg>
